<?xml version="1.0" encoding="UTF-8" standalone="no"?>
<!DOCTYPE svg PUBLIC "-//W3C//DTD SVG 1.1//EN"
 "http://www.w3.org/Graphics/SVG/1.1/DTD/svg11.dtd">
<!-- Generated by graphviz version 2.40.1 (20161225.0304)
 -->
<!-- Title: dependencies Pages: 1 -->
<svg width="504pt" height="211pt"
 viewBox="0.00 0.00 504.00 211.00" xmlns="http://www.w3.org/2000/svg" xmlns:xlink="http://www.w3.org/1999/xlink">
<g id="graph0" class="graph" transform="scale(1 1) rotate(0) translate(4 207)">
<title>dependencies</title>
<polygon fill="#ffffff" stroke="transparent" points="-4,4 -4,-207 500,-207 500,4 -4,4"/>
<text text-anchor="start" x="227.0091" y="-42.4" font-family="sans-serif" font-weight="bold" font-size="14.00" fill="#000000">Legend</text>
<polygon fill="#ffffb3" stroke="transparent" points="14,-10 14,-30 34,-30 34,-10 14,-10"/>
<text text-anchor="start" x="37.629" y="-15.4" font-family="sans-serif" font-size="14.00" fill="#000000"> &#160;Declarations</text>
<polygon fill="#8dd3c7" stroke="transparent" points="127,-10 127,-30 147,-30 147,-10 127,-10"/>
<text text-anchor="start" x="150.7251" y="-15.4" font-family="sans-serif" font-size="14.00" fill="#000000"> &#160;Module</text>
<polygon fill="#80b1d3" stroke="transparent" points="213,-10 213,-30 233,-30 233,-10 213,-10"/>
<text text-anchor="start" x="236.7812" y="-15.4" font-family="sans-serif" font-size="14.00" fill="#000000"> &#160;Bootstrap</text>
<polygon fill="#fdb462" stroke="transparent" points="310,-10 310,-30 330,-30 330,-10 310,-10"/>
<text text-anchor="start" x="333.6732" y="-15.4" font-family="sans-serif" font-size="14.00" fill="#000000"> &#160;Providers</text>
<polygon fill="#fb8072" stroke="transparent" points="406,-10 406,-30 426,-30 426,-10 406,-10"/>
<text text-anchor="start" x="429.7258" y="-15.4" font-family="sans-serif" font-size="14.00" fill="#000000"> &#160;Exports</text>
<g id="clust1" class="cluster">
<title>cluster_DocModule</title>
<polygon fill="none" stroke="#000000" stroke-dasharray="1,5" points="34,-70 34,-195 462,-195 462,-70 34,-70"/>
</g>
<g id="clust2" class="cluster">
<title>cluster_DocModule_declarations</title>
<polygon fill="none" stroke="#000000" points="334,-78 334,-130 454,-130 454,-78 334,-78"/>
</g>
<g id="clust4" class="cluster">
<title>cluster_DocModule_imports</title>
<polygon fill="none" stroke="#000000" points="182,-78 182,-130 326,-130 326,-78 182,-78"/>
</g>
<g id="clust7" class="cluster">
<title>cluster_DocModule_providers</title>
<polygon fill="none" stroke="#000000" points="42,-78 42,-130 174,-130 174,-78 42,-78"/>
</g>
<!-- DocComponent -->
<g id="node1" class="node">
<title>DocComponent</title>
<polygon fill="#ffffb3" stroke="#000000" points="446.1542,-122 341.8458,-122 341.8458,-86 446.1542,-86 446.1542,-122"/>
<text text-anchor="middle" x="394" y="-99.8" font-family="Times,serif" font-size="14.00" fill="#000000">DocComponent</text>
</g>
<!-- DocModule -->
<g id="node2" class="node">
<title>DocModule</title>
<polygon fill="#8dd3c7" stroke="#000000" points="295.3711,-187 292.3711,-191 271.3711,-191 268.3711,-187 212.6289,-187 212.6289,-151 295.3711,-151 295.3711,-187"/>
<text text-anchor="middle" x="254" y="-164.8" font-family="Times,serif" font-size="14.00" fill="#000000">DocModule</text>
</g>
<!-- DocComponent&#45;&gt;DocModule -->
<g id="edge1" class="edge">
<title>DocComponent&#45;&gt;DocModule</title>
<path fill="none" stroke="#000000" d="M394,-122.1061C394,-141.3391 394,-169 394,-169 394,-169 305.6256,-169 305.6256,-169"/>
<polygon fill="#000000" stroke="#000000" points="305.6256,-165.5001 295.6256,-169 305.6255,-172.5001 305.6256,-165.5001"/>
</g>
<!-- DocRoutingModule -->
<g id="node3" class="node">
<title>DocRoutingModule</title>
<polygon fill="#8dd3c7" stroke="#000000" points="317.9888,-122 314.9888,-126 293.9888,-126 290.9888,-122 190.0112,-122 190.0112,-86 317.9888,-86 317.9888,-122"/>
<text text-anchor="middle" x="254" y="-99.8" font-family="Times,serif" font-size="14.00" fill="#000000">DocRoutingModule</text>
</g>
<!-- DocRoutingModule&#45;&gt;DocModule -->
<g id="edge2" class="edge">
<title>DocRoutingModule&#45;&gt;DocModule</title>
<path fill="none" stroke="#000000" d="M254,-122.1061C254,-122.1061 254,-140.991 254,-140.991"/>
<polygon fill="#000000" stroke="#000000" points="250.5001,-140.9909 254,-150.991 257.5001,-140.991 250.5001,-140.9909"/>
</g>
<!-- TextService -->
<g id="node4" class="node">
<title>TextService</title>
<ellipse fill="#fdb462" stroke="#000000" cx="108" cy="-104" rx="57.881" ry="18"/>
<text text-anchor="middle" x="108" y="-99.8" font-family="Times,serif" font-size="14.00" fill="#000000">TextService</text>
</g>
<!-- TextService&#45;&gt;DocModule -->
<g id="edge3" class="edge">
<title>TextService&#45;&gt;DocModule</title>
<path fill="none" stroke="#000000" d="M108,-122.1061C108,-141.3391 108,-169 108,-169 108,-169 202.5528,-169 202.5528,-169"/>
<polygon fill="#000000" stroke="#000000" points="202.5528,-172.5001 212.5528,-169 202.5528,-165.5001 202.5528,-172.5001"/>
</g>
</g>
</svg>
