<?xml version="1.0" encoding="UTF-8" standalone="no"?>
<!DOCTYPE svg PUBLIC "-//W3C//DTD SVG 1.1//EN"
 "http://www.w3.org/Graphics/SVG/1.1/DTD/svg11.dtd">
<!-- Generated by graphviz version 2.40.1 (20161225.0304)
 -->
<!-- Title: dependencies Pages: 1 -->
<svg width="504pt" height="211pt"
 viewBox="0.00 0.00 504.00 211.00" xmlns="http://www.w3.org/2000/svg" xmlns:xlink="http://www.w3.org/1999/xlink">
<g id="graph0" class="graph" transform="scale(1 1) rotate(0) translate(4 207)">
<title>dependencies</title>
<polygon fill="#ffffff" stroke="transparent" points="-4,4 -4,-207 500,-207 500,4 -4,4"/>
<text text-anchor="start" x="227.0091" y="-42.4" font-family="sans-serif" font-weight="bold" font-size="14.00" fill="#000000">Legend</text>
<polygon fill="#ffffb3" stroke="transparent" points="14,-10 14,-30 34,-30 34,-10 14,-10"/>
<text text-anchor="start" x="37.629" y="-15.4" font-family="sans-serif" font-size="14.00" fill="#000000"> &#160;Declarations</text>
<polygon fill="#8dd3c7" stroke="transparent" points="127,-10 127,-30 147,-30 147,-10 127,-10"/>
<text text-anchor="start" x="150.7251" y="-15.4" font-family="sans-serif" font-size="14.00" fill="#000000"> &#160;Module</text>
<polygon fill="#80b1d3" stroke="transparent" points="213,-10 213,-30 233,-30 233,-10 213,-10"/>
<text text-anchor="start" x="236.7812" y="-15.4" font-family="sans-serif" font-size="14.00" fill="#000000"> &#160;Bootstrap</text>
<polygon fill="#fdb462" stroke="transparent" points="310,-10 310,-30 330,-30 330,-10 310,-10"/>
<text text-anchor="start" x="333.6732" y="-15.4" font-family="sans-serif" font-size="14.00" fill="#000000"> &#160;Providers</text>
<polygon fill="#fb8072" stroke="transparent" points="406,-10 406,-30 426,-30 426,-10 406,-10"/>
<text text-anchor="start" x="429.7258" y="-15.4" font-family="sans-serif" font-size="14.00" fill="#000000"> &#160;Exports</text>
<g id="clust1" class="cluster">
<title>cluster_TextModule</title>
<polygon fill="none" stroke="#000000" stroke-dasharray="1,5" points="32,-70 32,-195 464,-195 464,-70 32,-70"/>
</g>
<g id="clust2" class="cluster">
<title>cluster_TextModule_declarations</title>
<polygon fill="none" stroke="#000000" points="334,-78 334,-130 456,-130 456,-78 334,-78"/>
</g>
<g id="clust4" class="cluster">
<title>cluster_TextModule_imports</title>
<polygon fill="none" stroke="#000000" points="180,-78 180,-130 326,-130 326,-78 180,-78"/>
</g>
<g id="clust7" class="cluster">
<title>cluster_TextModule_providers</title>
<polygon fill="none" stroke="#000000" points="40,-78 40,-130 172,-130 172,-78 40,-78"/>
</g>
<!-- TextComponent -->
<g id="node1" class="node">
<title>TextComponent</title>
<polygon fill="#ffffb3" stroke="#000000" points="448.4902,-122 341.5098,-122 341.5098,-86 448.4902,-86 448.4902,-122"/>
<text text-anchor="middle" x="395" y="-99.8" font-family="Times,serif" font-size="14.00" fill="#000000">TextComponent</text>
</g>
<!-- TextModule -->
<g id="node2" class="node">
<title>TextModule</title>
<polygon fill="#8dd3c7" stroke="#000000" points="295.7079,-187 292.7079,-191 271.7079,-191 268.7079,-187 210.2921,-187 210.2921,-151 295.7079,-151 295.7079,-187"/>
<text text-anchor="middle" x="253" y="-164.8" font-family="Times,serif" font-size="14.00" fill="#000000">TextModule</text>
</g>
<!-- TextComponent&#45;&gt;TextModule -->
<g id="edge1" class="edge">
<title>TextComponent&#45;&gt;TextModule</title>
<path fill="none" stroke="#000000" d="M395,-122.1061C395,-141.3391 395,-169 395,-169 395,-169 305.6047,-169 305.6047,-169"/>
<polygon fill="#000000" stroke="#000000" points="305.6047,-165.5001 295.6047,-169 305.6046,-172.5001 305.6047,-165.5001"/>
</g>
<!-- TextRoutingModule -->
<g id="node3" class="node">
<title>TextRoutingModule</title>
<polygon fill="#8dd3c7" stroke="#000000" points="318.3258,-122 315.3258,-126 294.3258,-126 291.3258,-122 187.6742,-122 187.6742,-86 318.3258,-86 318.3258,-122"/>
<text text-anchor="middle" x="253" y="-99.8" font-family="Times,serif" font-size="14.00" fill="#000000">TextRoutingModule</text>
</g>
<!-- TextRoutingModule&#45;&gt;TextModule -->
<g id="edge2" class="edge">
<title>TextRoutingModule&#45;&gt;TextModule</title>
<path fill="none" stroke="#000000" d="M253,-122.1061C253,-122.1061 253,-140.991 253,-140.991"/>
<polygon fill="#000000" stroke="#000000" points="249.5001,-140.9909 253,-150.991 256.5001,-140.991 249.5001,-140.9909"/>
</g>
<!-- TextService -->
<g id="node4" class="node">
<title>TextService</title>
<ellipse fill="#fdb462" stroke="#000000" cx="106" cy="-104" rx="57.881" ry="18"/>
<text text-anchor="middle" x="106" y="-99.8" font-family="Times,serif" font-size="14.00" fill="#000000">TextService</text>
</g>
<!-- TextService&#45;&gt;TextModule -->
<g id="edge3" class="edge">
<title>TextService&#45;&gt;TextModule</title>
<path fill="none" stroke="#000000" d="M106,-122.1061C106,-141.3391 106,-169 106,-169 106,-169 200.0863,-169 200.0863,-169"/>
<polygon fill="#000000" stroke="#000000" points="200.0864,-172.5001 210.0863,-169 200.0863,-165.5001 200.0864,-172.5001"/>
</g>
</g>
</svg>
