<?xml version="1.0" encoding="UTF-8" standalone="no"?>
<!DOCTYPE svg PUBLIC "-//W3C//DTD SVG 1.1//EN"
 "http://www.w3.org/Graphics/SVG/1.1/DTD/svg11.dtd">
<!-- Generated by graphviz version 2.40.1 (20161225.0304)
 -->
<!-- Title: dependencies Pages: 1 -->
<svg width="749pt" height="276pt"
 viewBox="0.00 0.00 749.00 276.00" xmlns="http://www.w3.org/2000/svg" xmlns:xlink="http://www.w3.org/1999/xlink">
<g id="graph0" class="graph" transform="scale(1 1) rotate(0) translate(4 272)">
<title>dependencies</title>
<polygon fill="#ffffff" stroke="transparent" points="-4,4 -4,-272 745,-272 745,4 -4,4"/>
<text text-anchor="start" x="349.5091" y="-42.4" font-family="sans-serif" font-weight="bold" font-size="14.00" fill="#000000">Legend</text>
<polygon fill="#ffffb3" stroke="transparent" points="136.5,-10 136.5,-30 156.5,-30 156.5,-10 136.5,-10"/>
<text text-anchor="start" x="160.129" y="-15.4" font-family="sans-serif" font-size="14.00" fill="#000000"> &#160;Declarations</text>
<polygon fill="#8dd3c7" stroke="transparent" points="249.5,-10 249.5,-30 269.5,-30 269.5,-10 249.5,-10"/>
<text text-anchor="start" x="273.2251" y="-15.4" font-family="sans-serif" font-size="14.00" fill="#000000"> &#160;Module</text>
<polygon fill="#80b1d3" stroke="transparent" points="335.5,-10 335.5,-30 355.5,-30 355.5,-10 335.5,-10"/>
<text text-anchor="start" x="359.2812" y="-15.4" font-family="sans-serif" font-size="14.00" fill="#000000"> &#160;Bootstrap</text>
<polygon fill="#fdb462" stroke="transparent" points="432.5,-10 432.5,-30 452.5,-30 452.5,-10 432.5,-10"/>
<text text-anchor="start" x="456.1732" y="-15.4" font-family="sans-serif" font-size="14.00" fill="#000000"> &#160;Providers</text>
<polygon fill="#fb8072" stroke="transparent" points="528.5,-10 528.5,-30 548.5,-30 548.5,-10 528.5,-10"/>
<text text-anchor="start" x="552.2258" y="-15.4" font-family="sans-serif" font-size="14.00" fill="#000000"> &#160;Exports</text>
<g id="clust1" class="cluster">
<title>cluster_DictionaryModule</title>
<polygon fill="none" stroke="#000000" stroke-dasharray="1,5" points="8,-70 8,-260 733,-260 733,-70 8,-70"/>
</g>
<g id="clust2" class="cluster">
<title>cluster_DictionaryModule_declarations</title>
<polygon fill="none" stroke="#000000" points="567,-143 567,-195 725,-195 725,-143 567,-143"/>
</g>
<g id="clust3" class="cluster">
<title>cluster_DictionaryModule_DictionaryComponent_providers</title>
<polygon fill="none" stroke="#000000" points="517,-78 517,-130 725,-130 725,-78 517,-78"/>
</g>
<g id="clust4" class="cluster">
<title>cluster_DictionaryModule_imports</title>
<polygon fill="none" stroke="#000000" points="379,-143 379,-195 559,-195 559,-143 379,-143"/>
</g>
<g id="clust7" class="cluster">
<title>cluster_DictionaryModule_providers</title>
<polygon fill="none" stroke="#000000" points="16,-143 16,-195 371,-195 371,-143 16,-143"/>
</g>
<!-- DictionaryComponent -->
<g id="node1" class="node">
<title>DictionaryComponent</title>
<polygon fill="#ffffb3" stroke="#000000" points="716.7007,-187 575.2993,-187 575.2993,-151 716.7007,-151 716.7007,-187"/>
<text text-anchor="middle" x="646" y="-164.8" font-family="Times,serif" font-size="14.00" fill="#000000">DictionaryComponent</text>
</g>
<!-- DictionaryModule -->
<g id="node2" class="node">
<title>DictionaryModule</title>
<polygon fill="#8dd3c7" stroke="#000000" points="434.9187,-252 431.9187,-256 410.9187,-256 407.9187,-252 315.0813,-252 315.0813,-216 434.9187,-216 434.9187,-252"/>
<text text-anchor="middle" x="375" y="-229.8" font-family="Times,serif" font-size="14.00" fill="#000000">DictionaryModule</text>
</g>
<!-- DictionaryComponent&#45;&gt;DictionaryModule -->
<g id="edge1" class="edge">
<title>DictionaryComponent&#45;&gt;DictionaryModule</title>
<path fill="none" stroke="#000000" d="M646,-187.1061C646,-206.3391 646,-234 646,-234 646,-234 444.8076,-234 444.8076,-234"/>
<polygon fill="#000000" stroke="#000000" points="444.8076,-230.5001 434.8076,-234 444.8076,-237.5001 444.8076,-230.5001"/>
</g>
<!-- NgbPaginationConfig -->
<g id="node3" class="node">
<title>NgbPaginationConfig</title>
<ellipse fill="#fdb462" stroke="#000000" cx="621" cy="-104" rx="95.5915" ry="18"/>
<text text-anchor="middle" x="621" y="-99.8" font-family="Times,serif" font-size="14.00" fill="#000000">NgbPaginationConfig</text>
</g>
<!-- NgbPaginationConfig&#45;&gt;DictionaryComponent -->
<g id="edge2" class="edge">
<title>NgbPaginationConfig&#45;&gt;DictionaryComponent</title>
<path fill="none" stroke="#000000" d="M646,-121.4188C646,-121.4188 646,-140.6234 646,-140.6234"/>
<polygon fill="#000000" stroke="#000000" points="642.5001,-140.6234 646,-150.6234 649.5001,-140.6234 642.5001,-140.6234"/>
</g>
<!-- DictionaryRoutingModule -->
<g id="node4" class="node">
<title>DictionaryRoutingModule</title>
<polygon fill="#8dd3c7" stroke="#000000" points="551.0365,-187 548.0365,-191 527.0365,-191 524.0365,-187 386.9635,-187 386.9635,-151 551.0365,-151 551.0365,-187"/>
<text text-anchor="middle" x="469" y="-164.8" font-family="Times,serif" font-size="14.00" fill="#000000">DictionaryRoutingModule</text>
</g>
<!-- DictionaryRoutingModule&#45;&gt;DictionaryModule -->
<g id="edge3" class="edge">
<title>DictionaryRoutingModule&#45;&gt;DictionaryModule</title>
<path fill="none" stroke="#000000" d="M410.7206,-187.1061C410.7206,-187.1061 410.7206,-205.991 410.7206,-205.991"/>
<polygon fill="#000000" stroke="#000000" points="407.2206,-205.9909 410.7206,-215.991 414.2206,-205.991 407.2206,-205.9909"/>
</g>
<!-- WordsListService -->
<g id="node5" class="node">
<title>WordsListService</title>
<ellipse fill="#fdb462" stroke="#000000" cx="282" cy="-169" rx="80.5142" ry="18"/>
<text text-anchor="middle" x="282" y="-164.8" font-family="Times,serif" font-size="14.00" fill="#000000">WordsListService</text>
</g>
<!-- WordsListService&#45;&gt;DictionaryModule -->
<g id="edge4" class="edge">
<title>WordsListService&#45;&gt;DictionaryModule</title>
<path fill="none" stroke="#000000" d="M339.0239,-181.8419C339.0239,-181.8419 339.0239,-205.5231 339.0239,-205.5231"/>
<polygon fill="#000000" stroke="#000000" points="335.524,-205.523 339.0239,-215.5231 342.524,-205.5231 335.524,-205.523"/>
</g>
<!-- DefinitionService -->
<g id="node6" class="node">
<title>DefinitionService</title>
<ellipse fill="#fdb462" stroke="#000000" cx="104" cy="-169" rx="79.8701" ry="18"/>
<text text-anchor="middle" x="104" y="-164.8" font-family="Times,serif" font-size="14.00" fill="#000000">DefinitionService</text>
</g>
<!-- DefinitionService&#45;&gt;DictionaryModule -->
<g id="edge5" class="edge">
<title>DefinitionService&#45;&gt;DictionaryModule</title>
<path fill="none" stroke="#000000" d="M104,-187.1061C104,-206.3391 104,-234 104,-234 104,-234 305.1924,-234 305.1924,-234"/>
<polygon fill="#000000" stroke="#000000" points="305.1924,-237.5001 315.1924,-234 305.1924,-230.5001 305.1924,-237.5001"/>
</g>
</g>
</svg>
