<?xml version="1.0" encoding="UTF-8" standalone="no"?>
<!DOCTYPE svg PUBLIC "-//W3C//DTD SVG 1.1//EN"
 "http://www.w3.org/Graphics/SVG/1.1/DTD/svg11.dtd">
<!-- Generated by graphviz version 2.40.1 (20161225.0304)
 -->
<!-- Title: dependencies Pages: 1 -->
<svg width="513pt" height="211pt"
 viewBox="0.00 0.00 513.00 211.00" xmlns="http://www.w3.org/2000/svg" xmlns:xlink="http://www.w3.org/1999/xlink">
<g id="graph0" class="graph" transform="scale(1 1) rotate(0) translate(4 207)">
<title>dependencies</title>
<polygon fill="#ffffff" stroke="transparent" points="-4,4 -4,-207 509,-207 509,4 -4,4"/>
<text text-anchor="start" x="231.5091" y="-42.4" font-family="sans-serif" font-weight="bold" font-size="14.00" fill="#000000">Legend</text>
<polygon fill="#ffffb3" stroke="transparent" points="18.5,-10 18.5,-30 38.5,-30 38.5,-10 18.5,-10"/>
<text text-anchor="start" x="42.129" y="-15.4" font-family="sans-serif" font-size="14.00" fill="#000000"> &#160;Declarations</text>
<polygon fill="#8dd3c7" stroke="transparent" points="131.5,-10 131.5,-30 151.5,-30 151.5,-10 131.5,-10"/>
<text text-anchor="start" x="155.2251" y="-15.4" font-family="sans-serif" font-size="14.00" fill="#000000"> &#160;Module</text>
<polygon fill="#80b1d3" stroke="transparent" points="217.5,-10 217.5,-30 237.5,-30 237.5,-10 217.5,-10"/>
<text text-anchor="start" x="241.2812" y="-15.4" font-family="sans-serif" font-size="14.00" fill="#000000"> &#160;Bootstrap</text>
<polygon fill="#fdb462" stroke="transparent" points="314.5,-10 314.5,-30 334.5,-30 334.5,-10 314.5,-10"/>
<text text-anchor="start" x="338.1732" y="-15.4" font-family="sans-serif" font-size="14.00" fill="#000000"> &#160;Providers</text>
<polygon fill="#fb8072" stroke="transparent" points="410.5,-10 410.5,-30 430.5,-30 430.5,-10 410.5,-10"/>
<text text-anchor="start" x="434.2258" y="-15.4" font-family="sans-serif" font-size="14.00" fill="#000000"> &#160;Exports</text>
<g id="clust1" class="cluster">
<title>cluster_TextStatisticsModule</title>
<polygon fill="none" stroke="#000000" stroke-dasharray="1,5" points="8,-70 8,-195 497,-195 497,-70 8,-70"/>
</g>
<g id="clust2" class="cluster">
<title>cluster_TextStatisticsModule_declarations</title>
<polygon fill="none" stroke="#000000" points="315,-78 315,-130 489,-130 489,-78 315,-78"/>
</g>
<g id="clust4" class="cluster">
<title>cluster_TextStatisticsModule_imports</title>
<polygon fill="none" stroke="#000000" points="16,-78 16,-130 307,-130 307,-78 16,-78"/>
</g>
<!-- TextStatisticsComponent -->
<g id="node1" class="node">
<title>TextStatisticsComponent</title>
<polygon fill="#ffffb3" stroke="#000000" points="480.5449,-122 323.4551,-122 323.4551,-86 480.5449,-86 480.5449,-122"/>
<text text-anchor="middle" x="402" y="-99.8" font-family="Times,serif" font-size="14.00" fill="#000000">TextStatisticsComponent</text>
</g>
<!-- TextStatisticsModule -->
<g id="node2" class="node">
<title>TextStatisticsModule</title>
<polygon fill="#8dd3c7" stroke="#000000" points="276.7618,-187 273.7618,-191 252.7618,-191 249.7618,-187 141.2382,-187 141.2382,-151 276.7618,-151 276.7618,-187"/>
<text text-anchor="middle" x="209" y="-164.8" font-family="Times,serif" font-size="14.00" fill="#000000">TextStatisticsModule</text>
</g>
<!-- TextStatisticsComponent&#45;&gt;TextStatisticsModule -->
<g id="edge1" class="edge">
<title>TextStatisticsComponent&#45;&gt;TextStatisticsModule</title>
<path fill="none" stroke="#000000" d="M402,-122.1061C402,-141.3391 402,-169 402,-169 402,-169 286.7732,-169 286.7732,-169"/>
<polygon fill="#000000" stroke="#000000" points="286.7732,-165.5001 276.7732,-169 286.7732,-172.5001 286.7732,-165.5001"/>
</g>
<!-- TextStatisticsRoutingModule -->
<g id="node3" class="node">
<title>TextStatisticsRoutingModule</title>
<polygon fill="#8dd3c7" stroke="#000000" points="299.3794,-122 296.3794,-126 275.3794,-126 272.3794,-122 118.6206,-122 118.6206,-86 299.3794,-86 299.3794,-122"/>
<text text-anchor="middle" x="209" y="-99.8" font-family="Times,serif" font-size="14.00" fill="#000000">TextStatisticsRoutingModule</text>
</g>
<!-- TextStatisticsRoutingModule&#45;&gt;TextStatisticsModule -->
<g id="edge2" class="edge">
<title>TextStatisticsRoutingModule&#45;&gt;TextStatisticsModule</title>
<path fill="none" stroke="#000000" d="M209,-122.1061C209,-122.1061 209,-140.991 209,-140.991"/>
<polygon fill="#000000" stroke="#000000" points="205.5001,-140.9909 209,-150.991 212.5001,-140.991 205.5001,-140.9909"/>
</g>
<!-- Ng2Charts -->
<g id="node4" class="node">
<title>Ng2Charts</title>
<polygon fill="#8dd3c7" stroke="#000000" points="100.1544,-122 97.1544,-126 76.1544,-126 73.1544,-122 23.8456,-122 23.8456,-86 100.1544,-86 100.1544,-122"/>
<text text-anchor="middle" x="62" y="-99.8" font-family="Times,serif" font-size="14.00" fill="#000000">Ng2Charts</text>
</g>
<!-- Ng2Charts&#45;&gt;TextStatisticsModule -->
<g id="edge3" class="edge">
<title>Ng2Charts&#45;&gt;TextStatisticsModule</title>
<path fill="none" stroke="#000000" d="M62,-122.1061C62,-141.3391 62,-169 62,-169 62,-169 131.0938,-169 131.0938,-169"/>
<polygon fill="#000000" stroke="#000000" points="131.0939,-172.5001 141.0938,-169 131.0938,-165.5001 131.0939,-172.5001"/>
</g>
</g>
</svg>
