<?xml version="1.0" encoding="UTF-8" standalone="no"?>
<!DOCTYPE svg PUBLIC "-//W3C//DTD SVG 1.1//EN"
 "http://www.w3.org/Graphics/SVG/1.1/DTD/svg11.dtd">
<!-- Generated by graphviz version 2.40.1 (20161225.0304)
 -->
<!-- Title: dependencies Pages: 1 -->
<svg width="504pt" height="211pt"
 viewBox="0.00 0.00 504.00 211.00" xmlns="http://www.w3.org/2000/svg" xmlns:xlink="http://www.w3.org/1999/xlink">
<g id="graph0" class="graph" transform="scale(1 1) rotate(0) translate(4 207)">
<title>dependencies</title>
<polygon fill="#ffffff" stroke="transparent" points="-4,4 -4,-207 500,-207 500,4 -4,4"/>
<text text-anchor="start" x="227.0091" y="-42.4" font-family="sans-serif" font-weight="bold" font-size="14.00" fill="#000000">Legend</text>
<polygon fill="#ffffb3" stroke="transparent" points="14,-10 14,-30 34,-30 34,-10 14,-10"/>
<text text-anchor="start" x="37.629" y="-15.4" font-family="sans-serif" font-size="14.00" fill="#000000"> &#160;Declarations</text>
<polygon fill="#8dd3c7" stroke="transparent" points="127,-10 127,-30 147,-30 147,-10 127,-10"/>
<text text-anchor="start" x="150.7251" y="-15.4" font-family="sans-serif" font-size="14.00" fill="#000000"> &#160;Module</text>
<polygon fill="#80b1d3" stroke="transparent" points="213,-10 213,-30 233,-30 233,-10 213,-10"/>
<text text-anchor="start" x="236.7812" y="-15.4" font-family="sans-serif" font-size="14.00" fill="#000000"> &#160;Bootstrap</text>
<polygon fill="#fdb462" stroke="transparent" points="310,-10 310,-30 330,-30 330,-10 310,-10"/>
<text text-anchor="start" x="333.6732" y="-15.4" font-family="sans-serif" font-size="14.00" fill="#000000"> &#160;Providers</text>
<polygon fill="#fb8072" stroke="transparent" points="406,-10 406,-30 426,-30 426,-10 406,-10"/>
<text text-anchor="start" x="429.7258" y="-15.4" font-family="sans-serif" font-size="14.00" fill="#000000"> &#160;Exports</text>
<g id="clust1" class="cluster">
<title>cluster_PdfModule</title>
<polygon fill="none" stroke="#000000" stroke-dasharray="1,5" points="38,-70 38,-195 458,-195 458,-70 38,-70"/>
</g>
<g id="clust2" class="cluster">
<title>cluster_PdfModule_declarations</title>
<polygon fill="none" stroke="#000000" points="334,-78 334,-130 450,-130 450,-78 334,-78"/>
</g>
<g id="clust4" class="cluster">
<title>cluster_PdfModule_imports</title>
<polygon fill="none" stroke="#000000" points="186,-78 186,-130 326,-130 326,-78 186,-78"/>
</g>
<g id="clust7" class="cluster">
<title>cluster_PdfModule_providers</title>
<polygon fill="none" stroke="#000000" points="46,-78 46,-130 178,-130 178,-78 46,-78"/>
</g>
<!-- PdfComponent -->
<g id="node1" class="node">
<title>PdfComponent</title>
<polygon fill="#ffffb3" stroke="#000000" points="442.2758,-122 341.7242,-122 341.7242,-86 442.2758,-86 442.2758,-122"/>
<text text-anchor="middle" x="392" y="-99.8" font-family="Times,serif" font-size="14.00" fill="#000000">PdfComponent</text>
</g>
<!-- PdfModule -->
<g id="node2" class="node">
<title>PdfModule</title>
<polygon fill="#8dd3c7" stroke="#000000" points="295.493,-187 292.493,-191 271.493,-191 268.493,-187 216.507,-187 216.507,-151 295.493,-151 295.493,-187"/>
<text text-anchor="middle" x="256" y="-164.8" font-family="Times,serif" font-size="14.00" fill="#000000">PdfModule</text>
</g>
<!-- PdfComponent&#45;&gt;PdfModule -->
<g id="edge1" class="edge">
<title>PdfComponent&#45;&gt;PdfModule</title>
<path fill="none" stroke="#000000" d="M392,-122.1061C392,-141.3391 392,-169 392,-169 392,-169 305.7024,-169 305.7024,-169"/>
<polygon fill="#000000" stroke="#000000" points="305.7025,-165.5001 295.7024,-169 305.7024,-172.5001 305.7025,-165.5001"/>
</g>
<!-- PdfRoutingModule -->
<g id="node3" class="node">
<title>PdfRoutingModule</title>
<polygon fill="#8dd3c7" stroke="#000000" points="318.1108,-122 315.1108,-126 294.1108,-126 291.1108,-122 193.8892,-122 193.8892,-86 318.1108,-86 318.1108,-122"/>
<text text-anchor="middle" x="256" y="-99.8" font-family="Times,serif" font-size="14.00" fill="#000000">PdfRoutingModule</text>
</g>
<!-- PdfRoutingModule&#45;&gt;PdfModule -->
<g id="edge2" class="edge">
<title>PdfRoutingModule&#45;&gt;PdfModule</title>
<path fill="none" stroke="#000000" d="M256,-122.1061C256,-122.1061 256,-140.991 256,-140.991"/>
<polygon fill="#000000" stroke="#000000" points="252.5001,-140.9909 256,-150.991 259.5001,-140.991 252.5001,-140.9909"/>
</g>
<!-- TextService -->
<g id="node4" class="node">
<title>TextService</title>
<ellipse fill="#fdb462" stroke="#000000" cx="112" cy="-104" rx="57.881" ry="18"/>
<text text-anchor="middle" x="112" y="-99.8" font-family="Times,serif" font-size="14.00" fill="#000000">TextService</text>
</g>
<!-- TextService&#45;&gt;PdfModule -->
<g id="edge3" class="edge">
<title>TextService&#45;&gt;PdfModule</title>
<path fill="none" stroke="#000000" d="M112,-122.1061C112,-141.3391 112,-169 112,-169 112,-169 206.2702,-169 206.2702,-169"/>
<polygon fill="#000000" stroke="#000000" points="206.2702,-172.5001 216.2702,-169 206.2701,-165.5001 206.2702,-172.5001"/>
</g>
</g>
</svg>
