<?xml version="1.0" encoding="UTF-8" standalone="no"?>
<!DOCTYPE svg PUBLIC "-//W3C//DTD SVG 1.1//EN"
 "http://www.w3.org/Graphics/SVG/1.1/DTD/svg11.dtd">
<!-- Generated by graphviz version 2.40.1 (20161225.0304)
 -->
<!-- Title: dependencies Pages: 1 -->
<svg width="504pt" height="211pt"
 viewBox="0.00 0.00 504.00 211.00" xmlns="http://www.w3.org/2000/svg" xmlns:xlink="http://www.w3.org/1999/xlink">
<g id="graph0" class="graph" transform="scale(1 1) rotate(0) translate(4 207)">
<title>dependencies</title>
<polygon fill="#ffffff" stroke="transparent" points="-4,4 -4,-207 500,-207 500,4 -4,4"/>
<text text-anchor="start" x="227.0091" y="-42.4" font-family="sans-serif" font-weight="bold" font-size="14.00" fill="#000000">Legend</text>
<polygon fill="#ffffb3" stroke="transparent" points="14,-10 14,-30 34,-30 34,-10 14,-10"/>
<text text-anchor="start" x="37.629" y="-15.4" font-family="sans-serif" font-size="14.00" fill="#000000"> &#160;Declarations</text>
<polygon fill="#8dd3c7" stroke="transparent" points="127,-10 127,-30 147,-30 147,-10 127,-10"/>
<text text-anchor="start" x="150.7251" y="-15.4" font-family="sans-serif" font-size="14.00" fill="#000000"> &#160;Module</text>
<polygon fill="#80b1d3" stroke="transparent" points="213,-10 213,-30 233,-30 233,-10 213,-10"/>
<text text-anchor="start" x="236.7812" y="-15.4" font-family="sans-serif" font-size="14.00" fill="#000000"> &#160;Bootstrap</text>
<polygon fill="#fdb462" stroke="transparent" points="310,-10 310,-30 330,-30 330,-10 310,-10"/>
<text text-anchor="start" x="333.6732" y="-15.4" font-family="sans-serif" font-size="14.00" fill="#000000"> &#160;Providers</text>
<polygon fill="#fb8072" stroke="transparent" points="406,-10 406,-30 426,-30 426,-10 406,-10"/>
<text text-anchor="start" x="429.7258" y="-15.4" font-family="sans-serif" font-size="14.00" fill="#000000"> &#160;Exports</text>
<g id="clust1" class="cluster">
<title>cluster_CreditsModule</title>
<polygon fill="none" stroke="#000000" stroke-dasharray="1,5" points="86,-70 86,-195 410,-195 410,-70 86,-70"/>
</g>
<g id="clust2" class="cluster">
<title>cluster_CreditsModule_declarations</title>
<polygon fill="none" stroke="#000000" points="264,-78 264,-130 402,-130 402,-78 264,-78"/>
</g>
<g id="clust4" class="cluster">
<title>cluster_CreditsModule_imports</title>
<polygon fill="none" stroke="#000000" points="94,-78 94,-130 256,-130 256,-78 94,-78"/>
</g>
<!-- CreditsComponent -->
<g id="node1" class="node">
<title>CreditsComponent</title>
<polygon fill="#ffffb3" stroke="#000000" points="393.7702,-122 272.2298,-122 272.2298,-86 393.7702,-86 393.7702,-122"/>
<text text-anchor="middle" x="333" y="-99.8" font-family="Times,serif" font-size="14.00" fill="#000000">CreditsComponent</text>
</g>
<!-- CreditsModule -->
<g id="node2" class="node">
<title>CreditsModule</title>
<polygon fill="#8dd3c7" stroke="#000000" points="303.9874,-187 300.9874,-191 279.9874,-191 276.9874,-187 204.0126,-187 204.0126,-151 303.9874,-151 303.9874,-187"/>
<text text-anchor="middle" x="254" y="-164.8" font-family="Times,serif" font-size="14.00" fill="#000000">CreditsModule</text>
</g>
<!-- CreditsComponent&#45;&gt;CreditsModule -->
<g id="edge1" class="edge">
<title>CreditsComponent&#45;&gt;CreditsModule</title>
<path fill="none" stroke="#000000" d="M288.0544,-122.1061C288.0544,-122.1061 288.0544,-140.991 288.0544,-140.991"/>
<polygon fill="#000000" stroke="#000000" points="284.5544,-140.9909 288.0544,-150.991 291.5544,-140.991 284.5544,-140.9909"/>
</g>
<!-- CreditsRoutingModule -->
<g id="node3" class="node">
<title>CreditsRoutingModule</title>
<polygon fill="#8dd3c7" stroke="#000000" points="247.6052,-122 244.6052,-126 223.6052,-126 220.6052,-122 102.3948,-122 102.3948,-86 247.6052,-86 247.6052,-122"/>
<text text-anchor="middle" x="175" y="-99.8" font-family="Times,serif" font-size="14.00" fill="#000000">CreditsRoutingModule</text>
</g>
<!-- CreditsRoutingModule&#45;&gt;CreditsModule -->
<g id="edge2" class="edge">
<title>CreditsRoutingModule&#45;&gt;CreditsModule</title>
<path fill="none" stroke="#000000" d="M225.7795,-122.1061C225.7795,-122.1061 225.7795,-140.991 225.7795,-140.991"/>
<polygon fill="#000000" stroke="#000000" points="222.2795,-140.9909 225.7795,-150.991 229.2795,-140.991 222.2795,-140.9909"/>
</g>
</g>
</svg>
