<?xml version="1.0" encoding="UTF-8" standalone="no"?>
<!DOCTYPE svg PUBLIC "-//W3C//DTD SVG 1.1//EN"
 "http://www.w3.org/Graphics/SVG/1.1/DTD/svg11.dtd">
<!-- Generated by graphviz version 2.40.1 (20161225.0304)
 -->
<!-- Title: dependencies Pages: 1 -->
<svg width="684pt" height="211pt"
 viewBox="0.00 0.00 684.00 211.00" xmlns="http://www.w3.org/2000/svg" xmlns:xlink="http://www.w3.org/1999/xlink">
<g id="graph0" class="graph" transform="scale(1 1) rotate(0) translate(4 207)">
<title>dependencies</title>
<polygon fill="#ffffff" stroke="transparent" points="-4,4 -4,-207 680,-207 680,4 -4,4"/>
<text text-anchor="start" x="317.0091" y="-42.4" font-family="sans-serif" font-weight="bold" font-size="14.00" fill="#000000">Legend</text>
<polygon fill="#ffffb3" stroke="transparent" points="104,-10 104,-30 124,-30 124,-10 104,-10"/>
<text text-anchor="start" x="127.629" y="-15.4" font-family="sans-serif" font-size="14.00" fill="#000000"> &#160;Declarations</text>
<polygon fill="#8dd3c7" stroke="transparent" points="217,-10 217,-30 237,-30 237,-10 217,-10"/>
<text text-anchor="start" x="240.7251" y="-15.4" font-family="sans-serif" font-size="14.00" fill="#000000"> &#160;Module</text>
<polygon fill="#80b1d3" stroke="transparent" points="303,-10 303,-30 323,-30 323,-10 303,-10"/>
<text text-anchor="start" x="326.7812" y="-15.4" font-family="sans-serif" font-size="14.00" fill="#000000"> &#160;Bootstrap</text>
<polygon fill="#fdb462" stroke="transparent" points="400,-10 400,-30 420,-30 420,-10 400,-10"/>
<text text-anchor="start" x="423.6732" y="-15.4" font-family="sans-serif" font-size="14.00" fill="#000000"> &#160;Providers</text>
<polygon fill="#fb8072" stroke="transparent" points="496,-10 496,-30 516,-30 516,-10 496,-10"/>
<text text-anchor="start" x="519.7258" y="-15.4" font-family="sans-serif" font-size="14.00" fill="#000000"> &#160;Exports</text>
<g id="clust1" class="cluster">
<title>cluster_EnhancedTextResultModule</title>
<polygon fill="none" stroke="#000000" stroke-dasharray="1,5" points="8,-70 8,-195 668,-195 668,-70 8,-70"/>
</g>
<g id="clust2" class="cluster">
<title>cluster_EnhancedTextResultModule_declarations</title>
<polygon fill="none" stroke="#000000" points="446,-78 446,-130 660,-130 660,-78 446,-78"/>
</g>
<g id="clust4" class="cluster">
<title>cluster_EnhancedTextResultModule_imports</title>
<polygon fill="none" stroke="#000000" points="200,-78 200,-130 438,-130 438,-78 200,-78"/>
</g>
<g id="clust7" class="cluster">
<title>cluster_EnhancedTextResultModule_providers</title>
<polygon fill="none" stroke="#000000" points="16,-78 16,-130 192,-130 192,-78 16,-78"/>
</g>
<!-- EnhancedTextResultComponent -->
<g id="node1" class="node">
<title>EnhancedTextResultComponent</title>
<polygon fill="#ffffb3" stroke="#000000" points="651.9636,-122 454.0364,-122 454.0364,-86 651.9636,-86 651.9636,-122"/>
<text text-anchor="middle" x="553" y="-99.8" font-family="Times,serif" font-size="14.00" fill="#000000">EnhancedTextResultComponent</text>
</g>
<!-- EnhancedTextResultModule -->
<g id="node2" class="node">
<title>EnhancedTextResultModule</title>
<polygon fill="#8dd3c7" stroke="#000000" points="407.1811,-187 404.1811,-191 383.1811,-191 380.1811,-187 230.8189,-187 230.8189,-151 407.1811,-151 407.1811,-187"/>
<text text-anchor="middle" x="319" y="-164.8" font-family="Times,serif" font-size="14.00" fill="#000000">EnhancedTextResultModule</text>
</g>
<!-- EnhancedTextResultComponent&#45;&gt;EnhancedTextResultModule -->
<g id="edge1" class="edge">
<title>EnhancedTextResultComponent&#45;&gt;EnhancedTextResultModule</title>
<path fill="none" stroke="#000000" d="M553,-122.1061C553,-141.3391 553,-169 553,-169 553,-169 417.1319,-169 417.1319,-169"/>
<polygon fill="#000000" stroke="#000000" points="417.132,-165.5001 407.1319,-169 417.1319,-172.5001 417.132,-165.5001"/>
</g>
<!-- EnhancedTextResultRoutingModule -->
<g id="node3" class="node">
<title>EnhancedTextResultRoutingModule</title>
<polygon fill="#8dd3c7" stroke="#000000" points="429.799,-122 426.799,-126 405.799,-126 402.799,-122 208.201,-122 208.201,-86 429.799,-86 429.799,-122"/>
<text text-anchor="middle" x="319" y="-99.8" font-family="Times,serif" font-size="14.00" fill="#000000">EnhancedTextResultRoutingModule</text>
</g>
<!-- EnhancedTextResultRoutingModule&#45;&gt;EnhancedTextResultModule -->
<g id="edge2" class="edge">
<title>EnhancedTextResultRoutingModule&#45;&gt;EnhancedTextResultModule</title>
<path fill="none" stroke="#000000" d="M319,-122.1061C319,-122.1061 319,-140.991 319,-140.991"/>
<polygon fill="#000000" stroke="#000000" points="315.5001,-140.9909 319,-150.991 322.5001,-140.991 315.5001,-140.9909"/>
</g>
<!-- DefinitionService -->
<g id="node4" class="node">
<title>DefinitionService</title>
<ellipse fill="#fdb462" stroke="#000000" cx="104" cy="-104" rx="79.8701" ry="18"/>
<text text-anchor="middle" x="104" y="-99.8" font-family="Times,serif" font-size="14.00" fill="#000000">DefinitionService</text>
</g>
<!-- DefinitionService&#45;&gt;EnhancedTextResultModule -->
<g id="edge3" class="edge">
<title>DefinitionService&#45;&gt;EnhancedTextResultModule</title>
<path fill="none" stroke="#000000" d="M104,-122.1061C104,-141.3391 104,-169 104,-169 104,-169 220.6205,-169 220.6205,-169"/>
<polygon fill="#000000" stroke="#000000" points="220.6206,-172.5001 230.6205,-169 220.6205,-165.5001 220.6206,-172.5001"/>
</g>
</g>
</svg>
