<?xml version="1.0" encoding="UTF-8" standalone="no"?>
<!DOCTYPE svg PUBLIC "-//W3C//DTD SVG 1.1//EN"
 "http://www.w3.org/Graphics/SVG/1.1/DTD/svg11.dtd">
<!-- Generated by graphviz version 2.40.1 (20161225.0304)
 -->
<!-- Title: dependencies Pages: 1 -->
<svg width="504pt" height="211pt"
 viewBox="0.00 0.00 504.00 211.00" xmlns="http://www.w3.org/2000/svg" xmlns:xlink="http://www.w3.org/1999/xlink">
<g id="graph0" class="graph" transform="scale(1 1) rotate(0) translate(4 207)">
<title>dependencies</title>
<polygon fill="#ffffff" stroke="transparent" points="-4,4 -4,-207 500,-207 500,4 -4,4"/>
<text text-anchor="start" x="227.0091" y="-42.4" font-family="sans-serif" font-weight="bold" font-size="14.00" fill="#000000">Legend</text>
<polygon fill="#ffffb3" stroke="transparent" points="14,-10 14,-30 34,-30 34,-10 14,-10"/>
<text text-anchor="start" x="37.629" y="-15.4" font-family="sans-serif" font-size="14.00" fill="#000000"> &#160;Declarations</text>
<polygon fill="#8dd3c7" stroke="transparent" points="127,-10 127,-30 147,-30 147,-10 127,-10"/>
<text text-anchor="start" x="150.7251" y="-15.4" font-family="sans-serif" font-size="14.00" fill="#000000"> &#160;Module</text>
<polygon fill="#80b1d3" stroke="transparent" points="213,-10 213,-30 233,-30 233,-10 213,-10"/>
<text text-anchor="start" x="236.7812" y="-15.4" font-family="sans-serif" font-size="14.00" fill="#000000"> &#160;Bootstrap</text>
<polygon fill="#fdb462" stroke="transparent" points="310,-10 310,-30 330,-30 330,-10 310,-10"/>
<text text-anchor="start" x="333.6732" y="-15.4" font-family="sans-serif" font-size="14.00" fill="#000000"> &#160;Providers</text>
<polygon fill="#fb8072" stroke="transparent" points="406,-10 406,-30 426,-30 426,-10 406,-10"/>
<text text-anchor="start" x="429.7258" y="-15.4" font-family="sans-serif" font-size="14.00" fill="#000000"> &#160;Exports</text>
<g id="clust1" class="cluster">
<title>cluster_ImageModule</title>
<polygon fill="none" stroke="#000000" stroke-dasharray="1,5" points="22,-70 22,-195 474,-195 474,-70 22,-70"/>
</g>
<g id="clust2" class="cluster">
<title>cluster_ImageModule_declarations</title>
<polygon fill="none" stroke="#000000" points="334,-78 334,-130 466,-130 466,-78 334,-78"/>
</g>
<g id="clust4" class="cluster">
<title>cluster_ImageModule_imports</title>
<polygon fill="none" stroke="#000000" points="170,-78 170,-130 326,-130 326,-78 170,-78"/>
</g>
<g id="clust7" class="cluster">
<title>cluster_ImageModule_providers</title>
<polygon fill="none" stroke="#000000" points="30,-78 30,-130 162,-130 162,-78 30,-78"/>
</g>
<!-- ImageComponent -->
<g id="node1" class="node">
<title>ImageComponent</title>
<polygon fill="#ffffb3" stroke="#000000" points="458.3132,-122 341.6868,-122 341.6868,-86 458.3132,-86 458.3132,-122"/>
<text text-anchor="middle" x="400" y="-99.8" font-family="Times,serif" font-size="14.00" fill="#000000">ImageComponent</text>
</g>
<!-- ImageModule -->
<g id="node2" class="node">
<title>ImageModule</title>
<polygon fill="#8dd3c7" stroke="#000000" points="295.0314,-187 292.0314,-191 271.0314,-191 268.0314,-187 200.9686,-187 200.9686,-151 295.0314,-151 295.0314,-187"/>
<text text-anchor="middle" x="248" y="-164.8" font-family="Times,serif" font-size="14.00" fill="#000000">ImageModule</text>
</g>
<!-- ImageComponent&#45;&gt;ImageModule -->
<g id="edge1" class="edge">
<title>ImageComponent&#45;&gt;ImageModule</title>
<path fill="none" stroke="#000000" d="M400,-122.1061C400,-141.3391 400,-169 400,-169 400,-169 305.2605,-169 305.2605,-169"/>
<polygon fill="#000000" stroke="#000000" points="305.2606,-165.5001 295.2605,-169 305.2605,-172.5001 305.2606,-165.5001"/>
</g>
<!-- ImageRoutingModule -->
<g id="node3" class="node">
<title>ImageRoutingModule</title>
<polygon fill="#8dd3c7" stroke="#000000" points="317.6484,-122 314.6484,-126 293.6484,-126 290.6484,-122 178.3516,-122 178.3516,-86 317.6484,-86 317.6484,-122"/>
<text text-anchor="middle" x="248" y="-99.8" font-family="Times,serif" font-size="14.00" fill="#000000">ImageRoutingModule</text>
</g>
<!-- ImageRoutingModule&#45;&gt;ImageModule -->
<g id="edge2" class="edge">
<title>ImageRoutingModule&#45;&gt;ImageModule</title>
<path fill="none" stroke="#000000" d="M248,-122.1061C248,-122.1061 248,-140.991 248,-140.991"/>
<polygon fill="#000000" stroke="#000000" points="244.5001,-140.9909 248,-150.991 251.5001,-140.991 244.5001,-140.9909"/>
</g>
<!-- TextService -->
<g id="node4" class="node">
<title>TextService</title>
<ellipse fill="#fdb462" stroke="#000000" cx="96" cy="-104" rx="57.881" ry="18"/>
<text text-anchor="middle" x="96" y="-99.8" font-family="Times,serif" font-size="14.00" fill="#000000">TextService</text>
</g>
<!-- TextService&#45;&gt;ImageModule -->
<g id="edge3" class="edge">
<title>TextService&#45;&gt;ImageModule</title>
<path fill="none" stroke="#000000" d="M96,-122.1061C96,-141.3391 96,-169 96,-169 96,-169 190.7395,-169 190.7395,-169"/>
<polygon fill="#000000" stroke="#000000" points="190.7395,-172.5001 200.7395,-169 190.7394,-165.5001 190.7395,-172.5001"/>
</g>
</g>
</svg>
