<?xml version="1.0" encoding="UTF-8" standalone="no"?>
<!DOCTYPE svg PUBLIC "-//W3C//DTD SVG 1.1//EN"
 "http://www.w3.org/Graphics/SVG/1.1/DTD/svg11.dtd">
<!-- Generated by graphviz version 2.40.1 (20161225.0304)
 -->
<!-- Title: dependencies Pages: 1 -->
<svg width="504pt" height="211pt"
 viewBox="0.00 0.00 504.00 211.00" xmlns="http://www.w3.org/2000/svg" xmlns:xlink="http://www.w3.org/1999/xlink">
<g id="graph0" class="graph" transform="scale(1 1) rotate(0) translate(4 207)">
<title>dependencies</title>
<polygon fill="#ffffff" stroke="transparent" points="-4,4 -4,-207 500,-207 500,4 -4,4"/>
<text text-anchor="start" x="227.0091" y="-42.4" font-family="sans-serif" font-weight="bold" font-size="14.00" fill="#000000">Legend</text>
<polygon fill="#ffffb3" stroke="transparent" points="14,-10 14,-30 34,-30 34,-10 14,-10"/>
<text text-anchor="start" x="37.629" y="-15.4" font-family="sans-serif" font-size="14.00" fill="#000000"> &#160;Declarations</text>
<polygon fill="#8dd3c7" stroke="transparent" points="127,-10 127,-30 147,-30 147,-10 127,-10"/>
<text text-anchor="start" x="150.7251" y="-15.4" font-family="sans-serif" font-size="14.00" fill="#000000"> &#160;Module</text>
<polygon fill="#80b1d3" stroke="transparent" points="213,-10 213,-30 233,-30 233,-10 213,-10"/>
<text text-anchor="start" x="236.7812" y="-15.4" font-family="sans-serif" font-size="14.00" fill="#000000"> &#160;Bootstrap</text>
<polygon fill="#fdb462" stroke="transparent" points="310,-10 310,-30 330,-30 330,-10 310,-10"/>
<text text-anchor="start" x="333.6732" y="-15.4" font-family="sans-serif" font-size="14.00" fill="#000000"> &#160;Providers</text>
<polygon fill="#fb8072" stroke="transparent" points="406,-10 406,-30 426,-30 426,-10 406,-10"/>
<text text-anchor="start" x="429.7258" y="-15.4" font-family="sans-serif" font-size="14.00" fill="#000000"> &#160;Exports</text>
<g id="clust1" class="cluster">
<title>cluster_DashboardModule</title>
<polygon fill="none" stroke="#000000" stroke-dasharray="1,5" points="16.5,-70 16.5,-195 479.5,-195 479.5,-70 16.5,-70"/>
</g>
<g id="clust2" class="cluster">
<title>cluster_DashboardModule_declarations</title>
<polygon fill="none" stroke="#000000" points="313.5,-78 313.5,-130 471.5,-130 471.5,-78 313.5,-78"/>
</g>
<g id="clust4" class="cluster">
<title>cluster_DashboardModule_imports</title>
<polygon fill="none" stroke="#000000" points="24.5,-78 24.5,-130 305.5,-130 305.5,-78 24.5,-78"/>
</g>
<!-- DashboardComponent -->
<g id="node1" class="node">
<title>DashboardComponent</title>
<polygon fill="#ffffb3" stroke="#000000" points="463.4734,-122 321.5266,-122 321.5266,-86 463.4734,-86 463.4734,-122"/>
<text text-anchor="middle" x="392.5" y="-99.8" font-family="Times,serif" font-size="14.00" fill="#000000">DashboardComponent</text>
</g>
<!-- DashboardModule -->
<g id="node2" class="node">
<title>DashboardModule</title>
<polygon fill="#8dd3c7" stroke="#000000" points="274.691,-187 271.691,-191 250.691,-191 247.691,-187 154.309,-187 154.309,-151 274.691,-151 274.691,-187"/>
<text text-anchor="middle" x="214.5" y="-164.8" font-family="Times,serif" font-size="14.00" fill="#000000">DashboardModule</text>
</g>
<!-- DashboardComponent&#45;&gt;DashboardModule -->
<g id="edge1" class="edge">
<title>DashboardComponent&#45;&gt;DashboardModule</title>
<path fill="none" stroke="#000000" d="M392.5,-122.1061C392.5,-141.3391 392.5,-169 392.5,-169 392.5,-169 284.7627,-169 284.7627,-169"/>
<polygon fill="#000000" stroke="#000000" points="284.7627,-165.5001 274.7627,-169 284.7626,-172.5001 284.7627,-165.5001"/>
</g>
<!-- DashboardRoutingModule -->
<g id="node3" class="node">
<title>DashboardRoutingModule</title>
<polygon fill="#8dd3c7" stroke="#000000" points="297.3089,-122 294.3089,-126 273.3089,-126 270.3089,-122 131.6911,-122 131.6911,-86 297.3089,-86 297.3089,-122"/>
<text text-anchor="middle" x="214.5" y="-99.8" font-family="Times,serif" font-size="14.00" fill="#000000">DashboardRoutingModule</text>
</g>
<!-- DashboardRoutingModule&#45;&gt;DashboardModule -->
<g id="edge2" class="edge">
<title>DashboardRoutingModule&#45;&gt;DashboardModule</title>
<path fill="none" stroke="#000000" d="M214.5,-122.1061C214.5,-122.1061 214.5,-140.991 214.5,-140.991"/>
<polygon fill="#000000" stroke="#000000" points="211.0001,-140.9909 214.5,-150.991 218.0001,-140.991 211.0001,-140.9909"/>
</g>
<!-- StatModule -->
<g id="node4" class="node">
<title>StatModule</title>
<polygon fill="#8dd3c7" stroke="#000000" points="114.3289,-122 111.3289,-126 90.3289,-126 87.3289,-122 32.6711,-122 32.6711,-86 114.3289,-86 114.3289,-122"/>
<text text-anchor="middle" x="73.5" y="-99.8" font-family="Times,serif" font-size="14.00" fill="#000000">StatModule</text>
</g>
<!-- StatModule&#45;&gt;DashboardModule -->
<g id="edge3" class="edge">
<title>StatModule&#45;&gt;DashboardModule</title>
<path fill="none" stroke="#000000" d="M73.5,-122.1061C73.5,-141.3391 73.5,-169 73.5,-169 73.5,-169 144.2943,-169 144.2943,-169"/>
<polygon fill="#000000" stroke="#000000" points="144.2944,-172.5001 154.2943,-169 144.2943,-165.5001 144.2944,-172.5001"/>
</g>
</g>
</svg>
